<svg xmlns="http://www.w3.org/2000/svg" xmlns:xlink="http://www.w3.org/1999/xlink" width="40" zoomAndPan="magnify" viewBox="0 0 30 30.000001" height="40" preserveAspectRatio="xMidYMid meet" version="1.0"><defs><clipPath id="a3adc9aa7a"><path d="M 0.484375 0 L 29.515625 0 L 29.515625 29.03125 L 0.484375 29.03125 Z M 0.484375 0 " clip-rule="nonzero"/></clipPath><clipPath id="8a0c5d68d9"><path d="M 15 0 C 6.984375 0 0.484375 6.5 0.484375 14.515625 C 0.484375 22.53125 6.984375 29.03125 15 29.03125 C 23.015625 29.03125 29.515625 22.53125 29.515625 14.515625 C 29.515625 6.5 23.015625 0 15 0 Z M 15 0 " clip-rule="nonzero"/></clipPath><clipPath id="6ad3fa0853"><path d="M 0.484375 0 L 29.515625 0 L 29.515625 29.03125 L 0.484375 29.03125 Z M 0.484375 0 " clip-rule="nonzero"/></clipPath><clipPath id="17b172fc87"><path d="M 15 0 C 6.984375 0 0.484375 6.5 0.484375 14.515625 C 0.484375 22.53125 6.984375 29.03125 15 29.03125 C 23.015625 29.03125 29.515625 22.53125 29.515625 14.515625 C 29.515625 6.5 23.015625 0 15 0 Z M 15 0 " clip-rule="nonzero"/></clipPath><clipPath id="b48265bd68"><rect x="0" width="30" y="0" height="30"/></clipPath><clipPath id="32ac4c31b2"><path d="M 1.933594 1.453125 L 28.066406 1.453125 L 28.066406 27.582031 L 1.933594 27.582031 Z M 1.933594 1.453125 " clip-rule="nonzero"/></clipPath></defs><g clip-path="url(#a3adc9aa7a)"><g clip-path="url(#8a0c5d68d9)"><g transform="matrix(1, 0, 0, 1, 0, 0.000000000000005692)"><g clip-path="url(#b48265bd68)"><g clip-path="url(#6ad3fa0853)"><g clip-path="url(#17b172fc87)"><path fill="#0030ff" d="M 0.484375 0 L 29.515625 0 L 29.515625 29.03125 L 0.484375 29.03125 Z M 0.484375 0 " fill-opacity="1" fill-rule="nonzero"/></g></g></g></g></g></g><g clip-path="url(#32ac4c31b2)"><path fill="#efeef4" d="M 15 24.316406 C 15.90625 24.316406 16.78125 24.183594 17.613281 23.953125 L 17.613281 27.316406 C 16.769531 27.488281 15.894531 27.582031 15 27.582031 C 14.105469 27.582031 13.230469 27.488281 12.386719 27.316406 L 12.386719 23.953125 C 13.21875 24.179688 14.09375 24.316406 15 24.316406 Z M 12.386719 19.035156 L 12.386719 20.5 C 13.1875 20.851562 14.070312 21.046875 15 21.046875 C 15.929688 21.046875 16.8125 20.851562 17.613281 20.5 L 17.613281 19.035156 C 16.84375 19.484375 15.953125 19.742188 15 19.742188 C 14.046875 19.742188 13.15625 19.484375 12.386719 19.035156 Z M 9.320312 13.652344 C 8.871094 13.097656 8.03125 12.996094 7.527344 13.503906 C 7.25 13.78125 7.136719 14.164062 7.171875 14.535156 L 7.160156 14.515625 L 7.160156 11.320312 C 7.160156 10.667969 6.714844 10.066406 6.074219 9.960938 C 5.253906 9.828125 4.546875 10.457031 4.546875 11.25 L 4.546875 15.753906 C 4.546875 16.226562 4.675781 16.691406 4.921875 17.097656 L 6.507812 19.742188 L 7.160156 27.582031 L 11.082031 27.582031 L 11.082031 16.75 C 11.082031 16.148438 10.875 15.570312 10.496094 15.101562 Z M 15 1.453125 C 7.785156 1.453125 1.933594 7.300781 1.933594 14.515625 C 1.933594 17.988281 3.300781 21.136719 5.507812 23.476562 L 5.230469 20.152344 L 3.800781 17.769531 C 3.433594 17.160156 3.242188 16.460938 3.242188 15.753906 L 3.242188 11.25 C 3.242188 10.484375 3.578125 9.757812 4.164062 9.257812 C 4.746094 8.761719 5.519531 8.550781 6.285156 8.671875 C 6.53125 8.710938 6.757812 8.796875 6.976562 8.902344 C 8.746094 6.375 11.679688 4.71875 15 4.71875 C 18.324219 4.71875 21.253906 6.375 23.023438 8.902344 C 23.242188 8.796875 23.472656 8.710938 23.714844 8.671875 C 24.480469 8.550781 25.253906 8.761719 25.835938 9.257812 C 26.421875 9.757812 26.757812 10.484375 26.757812 11.25 L 26.757812 15.753906 C 26.757812 16.460938 26.566406 17.160156 26.199219 17.769531 L 24.769531 20.152344 L 24.492188 23.476562 C 26.699219 21.136719 28.066406 17.988281 28.066406 14.515625 C 28.066406 7.300781 22.214844 1.453125 15 1.453125 Z M 21.011719 11.957031 C 20.015625 9.621094 17.699219 7.984375 15 7.984375 C 12.300781 7.984375 9.984375 9.621094 8.988281 11.957031 C 9.421875 12.074219 9.808594 12.308594 10.132812 12.625 C 10.890625 10.675781 12.78125 9.289062 15 9.289062 C 17.21875 9.289062 19.109375 10.675781 19.867188 12.625 C 20.191406 12.308594 20.578125 12.074219 21.011719 11.957031 Z M 25.453125 15.753906 L 25.453125 11.25 C 25.453125 10.457031 24.746094 9.828125 23.925781 9.960938 C 23.285156 10.066406 22.839844 10.667969 22.839844 11.320312 L 22.839844 14.515625 L 22.828125 14.535156 C 22.863281 14.164062 22.75 13.78125 22.472656 13.503906 C 21.96875 12.996094 21.128906 13.097656 20.679688 13.652344 L 19.503906 15.101562 C 19.125 15.570312 18.917969 16.148438 18.917969 16.75 L 18.917969 27.582031 L 22.839844 27.582031 L 23.492188 19.742188 L 25.078125 17.097656 C 25.324219 16.691406 25.453125 16.226562 25.453125 15.753906 Z M 25.453125 15.753906 " fill-opacity="1" fill-rule="nonzero"/></g></svg>