<svg xmlns="http://www.w3.org/2000/svg" xmlns:xlink="http://www.w3.org/1999/xlink" width="40" zoomAndPan="magnify" viewBox="0 0 30 30.000001" height="40" preserveAspectRatio="xMidYMid meet" version="1.0"><defs><clipPath id="0506d9e13a"><path d="M 1.535156 1.050781 L 28.390625 1.050781 L 28.390625 27.90625 L 1.535156 27.90625 Z M 1.535156 1.050781 " clip-rule="nonzero"/></clipPath></defs><g clip-path="url(#0506d9e13a)"><path fill="#efeef4" d="M 14.996094 24.609375 C 15.929688 24.609375 16.832031 24.472656 17.691406 24.234375 L 17.691406 27.703125 C 16.820312 27.882812 15.917969 27.976562 14.996094 27.976562 C 14.074219 27.976562 13.175781 27.882812 12.304688 27.703125 L 12.304688 24.234375 C 13.164062 24.472656 14.0625 24.609375 14.996094 24.609375 Z M 12.304688 19.171875 L 12.304688 20.679688 C 13.128906 21.042969 14.039062 21.246094 14.996094 21.246094 C 15.957031 21.246094 16.863281 21.042969 17.691406 20.679688 L 17.691406 19.171875 C 16.898438 19.632812 15.980469 19.898438 14.996094 19.898438 C 14.015625 19.898438 13.097656 19.632812 12.304688 19.171875 Z M 9.144531 13.625 C 8.683594 13.054688 7.816406 12.945312 7.296875 13.46875 C 7.011719 13.757812 6.894531 14.152344 6.933594 14.53125 L 6.921875 14.515625 L 6.921875 11.21875 C 6.921875 10.550781 6.460938 9.929688 5.800781 9.820312 C 4.957031 9.683594 4.230469 10.332031 4.230469 11.148438 L 4.230469 15.789062 C 4.230469 16.273438 4.359375 16.753906 4.613281 17.171875 L 6.246094 19.898438 L 6.921875 27.976562 L 10.960938 27.976562 L 10.960938 16.816406 C 10.960938 16.195312 10.746094 15.597656 10.359375 15.117188 Z M 14.996094 1.050781 C 7.5625 1.050781 1.535156 7.078125 1.535156 14.515625 C 1.535156 18.089844 2.941406 21.332031 5.21875 23.746094 L 4.933594 20.324219 L 3.457031 17.867188 C 3.082031 17.238281 2.882812 16.519531 2.882812 15.789062 L 2.882812 11.148438 C 2.882812 10.359375 3.226562 9.609375 3.832031 9.097656 C 4.433594 8.585938 5.230469 8.367188 6.015625 8.492188 C 6.269531 8.53125 6.503906 8.621094 6.730469 8.730469 C 8.554688 6.125 11.574219 4.417969 14.996094 4.417969 C 18.421875 4.417969 21.441406 6.125 23.265625 8.730469 C 23.488281 8.621094 23.726562 8.53125 23.980469 8.492188 C 24.765625 8.367188 25.5625 8.585938 26.164062 9.097656 C 26.765625 9.609375 27.113281 10.359375 27.113281 11.148438 L 27.113281 15.789062 C 27.113281 16.519531 26.914062 17.238281 26.539062 17.863281 L 25.0625 20.324219 L 24.777344 23.746094 C 27.054688 21.332031 28.460938 18.089844 28.460938 14.515625 C 28.460938 7.078125 22.433594 1.050781 14.996094 1.050781 Z M 21.191406 11.875 C 20.164062 9.46875 17.777344 7.78125 14.996094 7.78125 C 12.21875 7.78125 9.832031 9.46875 8.804688 11.875 C 9.25 11.996094 9.648438 12.238281 9.980469 12.566406 C 10.761719 10.558594 12.710938 9.128906 14.996094 9.128906 C 17.285156 9.128906 19.234375 10.558594 20.011719 12.566406 C 20.34375 12.238281 20.746094 11.996094 21.191406 11.875 Z M 25.765625 15.789062 L 25.765625 11.148438 C 25.765625 10.332031 25.039062 9.683594 24.195312 9.820312 C 23.53125 9.929688 23.074219 10.550781 23.074219 11.21875 L 23.074219 14.515625 L 23.0625 14.53125 C 23.101562 14.152344 22.980469 13.757812 22.695312 13.46875 C 22.179688 12.945312 21.3125 13.054688 20.847656 13.625 L 19.636719 15.117188 C 19.25 15.597656 19.035156 16.195312 19.035156 16.816406 L 19.035156 27.976562 L 23.074219 27.976562 L 23.746094 19.898438 L 25.382812 17.171875 C 25.632812 16.753906 25.765625 16.273438 25.765625 15.789062 Z M 25.765625 15.789062 " fill-opacity="1" fill-rule="nonzero"/></g></svg>