<svg xmlns="http://www.w3.org/2000/svg" xmlns:xlink="http://www.w3.org/1999/xlink" width="400" zoomAndPan="magnify" viewBox="0 0 300 82.499998" height="110" preserveAspectRatio="xMidYMid meet" version="1.0"><defs><g/><clipPath id="68f04f6ce3"><path d="M 10 0 L 292 0 L 292 82.003906 L 10 82.003906 Z M 10 0 " clip-rule="nonzero"/></clipPath><clipPath id="3d273be108"><path d="M 0.207031 0 L 158 0 L 158 82.003906 L 0.207031 82.003906 Z M 0.207031 0 " clip-rule="nonzero"/></clipPath><clipPath id="21fd8e5bb2"><rect x="0" width="158" y="0" height="83"/></clipPath><clipPath id="063ca50c8c"><path d="M 159.371094 14.617188 L 209.855469 14.617188 L 209.855469 65.101562 L 159.371094 65.101562 Z M 159.371094 14.617188 " clip-rule="nonzero"/></clipPath><clipPath id="942b7b7dcb"><path d="M 212 0 L 281.703125 0 L 281.703125 82.003906 L 212 82.003906 Z M 212 0 " clip-rule="nonzero"/></clipPath><clipPath id="eac9b7eab3"><rect x="0" width="70" y="0" height="83"/></clipPath><clipPath id="0d670d9bcd"><rect x="0" width="282" y="0" height="83"/></clipPath></defs><g clip-path="url(#68f04f6ce3)"><g transform="matrix(1, 0, 0, 1, 10, 0)"><g clip-path="url(#0d670d9bcd)"><g clip-path="url(#3d273be108)"><g transform="matrix(1, 0, 0, 1, -0.000000000000001776, 0)"><g clip-path="url(#21fd8e5bb2)"><g fill="#ffffff" fill-opacity="1"><g transform="translate(1.377864, 63.754887)"><g><path d="M 24.796875 -6.734375 C 24.847656 -5.066406 24.847656 -3.375 24.796875 -1.65625 C 24.753906 -0.695312 24.394531 -0.179688 23.71875 -0.109375 C 23.050781 -0.0351562 22.3125 0 21.5 0 L 6.8125 0 C 5.757812 0 4.992188 -0.0546875 4.515625 -0.171875 C 4.035156 -0.296875 3.734375 -0.597656 3.609375 -1.078125 C 3.492188 -1.554688 3.4375 -2.320312 3.4375 -3.375 L 3.4375 -22.515625 L 0.578125 -24.15625 C 0.191406 -24.394531 0 -24.726562 0 -25.15625 C 0 -25.632812 0.191406 -25.992188 0.578125 -26.234375 L 3.4375 -27.890625 L 3.4375 -46.734375 C 3.4375 -47.929688 3.492188 -48.78125 3.609375 -49.28125 C 3.734375 -49.78125 4.046875 -50.085938 4.546875 -50.203125 C 5.054688 -50.328125 5.882812 -50.390625 7.03125 -50.390625 C 7.738281 -50.390625 8.351562 -50.390625 8.875 -50.390625 C 9.40625 -50.390625 9.835938 -50.367188 10.171875 -50.328125 C 11.179688 -50.273438 11.722656 -49.863281 11.796875 -49.09375 C 11.867188 -48.332031 11.90625 -47.257812 11.90625 -45.875 L 11.90625 -27.890625 L 14.765625 -26.234375 C 15.148438 -25.953125 15.34375 -25.59375 15.34375 -25.15625 C 15.34375 -24.78125 15.148438 -24.445312 14.765625 -24.15625 L 11.90625 -22.515625 L 11.90625 -13.90625 C 11.90625 -13.1875 11.914062 -12.585938 11.9375 -12.109375 C 11.957031 -11.628906 11.96875 -11.273438 11.96875 -11.046875 C 12.0625 -10.035156 12.285156 -9.363281 12.640625 -9.03125 C 13.003906 -8.695312 13.6875 -8.53125 14.6875 -8.53125 C 15.695312 -8.53125 17.226562 -8.503906 19.28125 -8.453125 C 20.863281 -8.453125 22.035156 -8.453125 22.796875 -8.453125 C 23.554688 -8.453125 24.078125 -8.34375 24.359375 -8.125 C 24.648438 -7.914062 24.796875 -7.453125 24.796875 -6.734375 Z M 24.796875 -6.734375 "/></g></g></g><g fill="#ffffff" fill-opacity="1"><g transform="translate(28.761543, 63.754887)"><g><path d="M 25.953125 -6.953125 C 26.046875 -6.046875 26.078125 -5.140625 26.046875 -4.234375 C 26.023438 -3.328125 25.96875 -2.441406 25.875 -1.578125 C 25.832031 -0.710938 25.453125 -0.234375 24.734375 -0.140625 C 24.015625 -0.046875 23.273438 0 22.515625 0 L 6.953125 0 C 6.472656 0 5.957031 -0.0195312 5.40625 -0.0625 C 4.863281 -0.113281 4.425781 -0.285156 4.09375 -0.578125 C 3.75 -0.859375 3.566406 -1.285156 3.546875 -1.859375 C 3.523438 -2.429688 3.515625 -3.390625 3.515625 -4.734375 L 3.515625 -22.4375 L 0.640625 -24.09375 C 0.265625 -24.332031 0.078125 -24.664062 0.078125 -25.09375 C 0.078125 -25.519531 0.265625 -25.851562 0.640625 -26.09375 L 3.515625 -27.75 L 3.515625 -46.453125 C 3.515625 -47.648438 3.570312 -48.507812 3.6875 -49.03125 C 3.8125 -49.5625 4.125 -49.882812 4.625 -50 C 5.125 -50.125 5.945312 -50.1875 7.09375 -50.1875 L 22.578125 -50.1875 C 24.109375 -50.1875 25.085938 -50.015625 25.515625 -49.671875 C 25.753906 -49.484375 25.910156 -49.019531 25.984375 -48.28125 C 26.054688 -47.539062 26.078125 -46.75 26.046875 -45.90625 C 26.023438 -45.070312 25.992188 -44.367188 25.953125 -43.796875 C 25.898438 -42.941406 25.523438 -42.460938 24.828125 -42.359375 C 24.140625 -42.265625 23.269531 -42.21875 22.21875 -42.21875 L 15.125 -42.21875 C 13.925781 -42.175781 13.125 -41.9375 12.71875 -41.5 C 12.3125 -41.070312 12.0625 -40.3125 11.96875 -39.21875 C 11.925781 -38.019531 11.914062 -36.820312 11.9375 -35.625 C 11.957031 -34.4375 11.992188 -33.265625 12.046875 -32.109375 C 12.046875 -31.253906 12.257812 -30.5625 12.6875 -30.03125 C 13.113281 -29.65625 13.722656 -29.441406 14.515625 -29.390625 C 15.304688 -29.335938 16.25 -29.3125 17.34375 -29.3125 C 17.914062 -29.3125 18.414062 -29.3125 18.84375 -29.3125 C 19.28125 -29.3125 19.617188 -29.289062 19.859375 -29.25 C 20.710938 -29.25 21.285156 -29.09375 21.578125 -28.78125 C 21.867188 -28.46875 22.035156 -27.882812 22.078125 -27.03125 C 22.128906 -26.257812 22.15625 -25.503906 22.15625 -24.765625 C 22.15625 -24.023438 22.109375 -23.273438 22.015625 -22.515625 C 22.015625 -21.554688 21.488281 -21.03125 20.4375 -20.9375 C 19.90625 -20.882812 19.234375 -20.859375 18.421875 -20.859375 C 17.609375 -20.859375 16.675781 -20.859375 15.625 -20.859375 C 14.289062 -20.859375 13.382812 -20.664062 12.90625 -20.28125 C 12.425781 -19.90625 12.140625 -18.953125 12.046875 -17.421875 C 11.992188 -16.554688 11.957031 -15.632812 11.9375 -14.65625 C 11.914062 -13.675781 11.925781 -12.640625 11.96875 -11.546875 C 12.0625 -10.398438 12.3125 -9.609375 12.71875 -9.171875 C 13.125 -8.742188 13.925781 -8.503906 15.125 -8.453125 L 22.15625 -8.453125 C 23.25 -8.410156 24.128906 -8.351562 24.796875 -8.28125 C 25.472656 -8.207031 25.859375 -7.765625 25.953125 -6.953125 Z M 25.953125 -6.953125 "/></g></g></g><g fill="#ffffff" fill-opacity="1"><g transform="translate(57.937358, 63.754887)"><g><path d="M 28.75 -4.296875 C 29.125 -2.191406 29.023438 -0.90625 28.453125 -0.4375 C 28.265625 -0.238281 27.691406 -0.101562 26.734375 -0.03125 C 25.785156 0.0390625 24.832031 0.0625 23.875 0.03125 C 22.914062 0.0078125 22.34375 0 22.15625 0 C 21.476562 -0.0507812 21 -0.21875 20.71875 -0.5 C 20.382812 -0.789062 20.164062 -1.234375 20.0625 -1.828125 C 19.96875 -2.421875 19.851562 -3.289062 19.71875 -4.4375 C 19.664062 -4.96875 19.613281 -5.445312 19.5625 -5.875 C 19.519531 -6.3125 19.453125 -6.671875 19.359375 -6.953125 C 19.359375 -7.191406 19.296875 -7.644531 19.171875 -8.3125 C 19.054688 -8.976562 18.816406 -9.625 18.453125 -10.25 C 18.097656 -10.875 17.488281 -11.1875 16.625 -11.1875 C 16.4375 -11.226562 16.296875 -11.25 16.203125 -11.25 C 16.109375 -11.25 16.0625 -11.25 16.0625 -11.25 C 14.8125 -11.25 13.875 -11.1875 13.25 -11.0625 C 12.632812 -10.945312 12.195312 -10.625 11.9375 -10.09375 C 11.675781 -9.570312 11.472656 -8.691406 11.328125 -7.453125 C 11.273438 -7.171875 11.164062 -6.550781 11 -5.59375 C 10.832031 -4.632812 10.609375 -3.320312 10.328125 -1.65625 C 10.128906 -0.601562 9.53125 -0.078125 8.53125 -0.078125 C 6.332031 -0.0234375 4.46875 -0.0234375 2.9375 -0.078125 C 1.9375 -0.117188 1.445312 -0.472656 1.46875 -1.140625 C 1.488281 -1.816406 1.570312 -2.679688 1.71875 -3.734375 C 2.582031 -8.609375 3.273438 -12.570312 3.796875 -15.625 C 4.328125 -18.6875 4.6875 -20.835938 4.875 -22.078125 C 4.875 -22.171875 4.882812 -22.265625 4.90625 -22.359375 C 4.9375 -22.460938 4.953125 -22.535156 4.953125 -22.578125 L 2.4375 -24.09375 C 2.007812 -24.332031 1.796875 -24.664062 1.796875 -25.09375 C 1.796875 -25.570312 2.007812 -25.90625 2.4375 -26.09375 L 5.875 -28.09375 C 6.6875 -32.539062 7.351562 -36.378906 7.875 -39.609375 C 8.40625 -42.835938 8.835938 -45.429688 9.171875 -47.390625 C 9.410156 -48.578125 9.734375 -49.335938 10.140625 -49.671875 C 10.546875 -50.015625 11.320312 -50.1875 12.46875 -50.1875 L 19 -50.1875 C 19.757812 -50.082031 20.285156 -49.9375 20.578125 -49.75 C 20.816406 -49.507812 21.019531 -49.101562 21.1875 -48.53125 C 21.351562 -47.957031 21.484375 -47.382812 21.578125 -46.8125 C 22.578125 -40.882812 23.335938 -36.34375 23.859375 -33.1875 C 24.390625 -30.03125 24.679688 -28.3125 24.734375 -28.03125 L 28.09375 -26.09375 C 28.476562 -25.851562 28.671875 -25.519531 28.671875 -25.09375 C 28.671875 -24.664062 28.476562 -24.332031 28.09375 -24.09375 L 25.671875 -22.65625 C 26.617188 -16.820312 27.351562 -12.375 27.875 -9.3125 C 28.40625 -6.257812 28.695312 -4.585938 28.75 -4.296875 Z M 17.484375 -20.078125 C 17.484375 -20.171875 17.484375 -20.3125 17.484375 -20.5 C 17.484375 -20.695312 17.460938 -20.960938 17.421875 -21.296875 C 17.367188 -21.722656 17.269531 -22.34375 17.125 -23.15625 C 16.988281 -23.96875 16.847656 -24.734375 16.703125 -25.453125 C 16.554688 -26.171875 16.484375 -26.550781 16.484375 -26.59375 C 16.441406 -26.882812 16.300781 -27.242188 16.0625 -27.671875 C 15.863281 -28.054688 15.597656 -28.210938 15.265625 -28.140625 C 14.929688 -28.066406 14.691406 -27.910156 14.546875 -27.671875 C 14.304688 -27.003906 14.078125 -26.117188 13.859375 -25.015625 C 13.648438 -23.921875 13.5 -22.609375 13.40625 -21.078125 C 13.351562 -20.890625 13.328125 -20.707031 13.328125 -20.53125 C 13.328125 -20.363281 13.328125 -20.234375 13.328125 -20.140625 C 13.328125 -19.804688 13.660156 -19.578125 14.328125 -19.453125 C 15.003906 -19.335938 15.6875 -19.335938 16.375 -19.453125 C 17.070312 -19.578125 17.441406 -19.785156 17.484375 -20.078125 Z M 17.484375 -20.078125 "/></g></g></g><g fill="#ffffff" fill-opacity="1"><g transform="translate(88.331818, 63.754887)"><g><path d="M 28.8125 -3.9375 C 28.957031 -3.457031 29.066406 -3.015625 29.140625 -2.609375 C 29.210938 -2.203125 29.269531 -1.832031 29.3125 -1.5 C 29.414062 -1.164062 29.359375 -0.851562 29.140625 -0.5625 C 28.921875 -0.28125 28.625 -0.117188 28.25 -0.078125 C 27.289062 0.0234375 26.269531 0.078125 25.1875 0.078125 C 24.113281 0.078125 22.984375 0.0507812 21.796875 0 C 21.023438 -0.09375 20.519531 -0.507812 20.28125 -1.25 C 20.039062 -1.988281 19.804688 -2.863281 19.578125 -3.875 C 19.472656 -4.394531 19.300781 -5.144531 19.0625 -6.125 C 18.820312 -7.101562 18.515625 -8.285156 18.140625 -9.671875 L 16.78125 -15.484375 C 16.632812 -16.148438 16.40625 -16.84375 16.09375 -17.5625 C 15.78125 -18.28125 15.097656 -18.566406 14.046875 -18.421875 C 12.992188 -18.273438 12.40625 -17.769531 12.28125 -16.90625 C 12.164062 -16.050781 12.085938 -15.078125 12.046875 -13.984375 L 12.046875 -3.875 C 12.046875 -2.820312 12.007812 -1.925781 11.9375 -1.1875 C 11.863281 -0.445312 11.328125 -0.0507812 10.328125 0 C 8.648438 0.09375 6.953125 0.09375 5.234375 0 C 4.273438 -0.0507812 3.757812 -0.457031 3.6875 -1.21875 C 3.613281 -1.976562 3.578125 -2.957031 3.578125 -4.15625 L 3.578125 -22.359375 L 0.71875 -23.9375 C 0.332031 -24.226562 0.140625 -24.585938 0.140625 -25.015625 C 0.140625 -25.453125 0.332031 -25.785156 0.71875 -26.015625 L 3.578125 -27.671875 L 3.578125 -46.53125 C 3.578125 -48.34375 3.75 -49.414062 4.09375 -49.75 C 4.425781 -50.082031 5.140625 -50.25 6.234375 -50.25 C 7.335938 -50.25 8.914062 -50.25 10.96875 -50.25 L 14.765625 -50.25 C 16.578125 -50.34375 18.632812 -50.054688 20.9375 -49.390625 C 22.894531 -48.910156 24.519531 -47.90625 25.8125 -46.375 C 27.101562 -44.851562 27.769531 -43.085938 27.8125 -41.078125 C 27.863281 -39.160156 27.863281 -34.90625 27.8125 -28.3125 C 27.8125 -26.6875 27.117188 -24.992188 25.734375 -23.234375 C 24.773438 -22.035156 24.515625 -20.523438 24.953125 -18.703125 C 25.285156 -17.554688 25.773438 -15.765625 26.421875 -13.328125 C 27.066406 -10.890625 27.863281 -7.757812 28.8125 -3.9375 Z M 19.859375 -37.5625 C 19.804688 -38.707031 19.515625 -39.566406 18.984375 -40.140625 C 18.460938 -40.710938 17.609375 -41.144531 16.421875 -41.4375 C 16.179688 -41.476562 15.976562 -41.507812 15.8125 -41.53125 C 15.644531 -41.5625 15.488281 -41.601562 15.34375 -41.65625 C 14 -41.84375 13.113281 -41.71875 12.6875 -41.28125 C 12.257812 -40.851562 12.054688 -40.078125 12.078125 -38.953125 C 12.097656 -37.835938 12.109375 -36.273438 12.109375 -34.265625 C 12.109375 -32.691406 12.117188 -31.4375 12.140625 -30.5 C 12.171875 -29.570312 12.1875 -29.0625 12.1875 -28.96875 C 12.1875 -27.769531 12.785156 -27.003906 13.984375 -26.671875 C 15.316406 -26.335938 16.53125 -26.515625 17.625 -27.203125 C 18.726562 -27.898438 19.425781 -28.914062 19.71875 -30.25 C 19.757812 -30.488281 19.789062 -30.679688 19.8125 -30.828125 C 19.84375 -30.972656 19.859375 -31.066406 19.859375 -31.109375 Z M 19.859375 -37.5625 "/></g></g></g><g fill="#ffffff" fill-opacity="1"><g transform="translate(120.30334, 63.754887)"><g><path d="M 33.484375 -26.234375 C 33.910156 -25.953125 34.125 -25.59375 34.125 -25.15625 C 34.125 -24.78125 33.910156 -24.445312 33.484375 -24.15625 L 30.6875 -22.515625 L 30.6875 -3.9375 C 30.6875 -2.695312 30.613281 -1.789062 30.46875 -1.21875 C 30.320312 -0.644531 29.972656 -0.296875 29.421875 -0.171875 C 28.878906 -0.0546875 27.960938 0 26.671875 0 C 26.097656 0 25.40625 0.0078125 24.59375 0.03125 C 23.78125 0.0625 23.023438 -0.0390625 22.328125 -0.28125 C 21.640625 -0.519531 21.175781 -1 20.9375 -1.71875 C 20.882812 -1.863281 20.832031 -2.03125 20.78125 -2.21875 C 20.738281 -2.414062 20.671875 -2.632812 20.578125 -2.875 L 20.21875 -3.875 C 18.394531 -9.5625 17.039062 -13.773438 16.15625 -16.515625 C 15.28125 -19.265625 14.863281 -20.546875 14.90625 -20.359375 L 14.046875 -22.71875 C 13.859375 -23.15625 13.570312 -23.335938 13.1875 -23.265625 C 12.800781 -23.191406 12.515625 -22.941406 12.328125 -22.515625 C 12.140625 -21.984375 12.046875 -20.953125 12.046875 -19.421875 L 12.046875 -3.875 C 12.046875 -2.582031 11.984375 -1.671875 11.859375 -1.140625 C 11.742188 -0.617188 11.398438 -0.296875 10.828125 -0.171875 C 10.253906 -0.0546875 9.296875 0 7.953125 0 L 5.453125 0 C 4.347656 -0.144531 3.75 -0.625 3.65625 -1.4375 C 3.5625 -2.25 3.515625 -3.226562 3.515625 -4.375 L 3.515625 -22.515625 L 0.640625 -24.15625 C 0.265625 -24.445312 0.078125 -24.78125 0.078125 -25.15625 C 0.078125 -25.59375 0.265625 -25.953125 0.640625 -26.234375 L 3.515625 -27.890625 L 3.515625 -46.3125 C 3.515625 -47.40625 3.5625 -48.332031 3.65625 -49.09375 C 3.75 -49.863281 4.203125 -50.273438 5.015625 -50.328125 L 11.828125 -50.328125 C 12.734375 -50.328125 13.332031 -49.820312 13.625 -48.8125 C 13.71875 -48.570312 13.832031 -48.222656 13.96875 -47.765625 C 14.113281 -47.316406 14.285156 -46.757812 14.484375 -46.09375 C 14.671875 -45.519531 14.835938 -45.003906 14.984375 -44.546875 C 15.128906 -44.097656 15.222656 -43.707031 15.265625 -43.375 C 15.554688 -42.414062 15.914062 -41.21875 16.34375 -39.78125 C 16.769531 -38.351562 17.210938 -36.859375 17.671875 -35.296875 C 18.128906 -33.742188 18.546875 -32.332031 18.921875 -31.0625 C 19.304688 -29.800781 19.59375 -28.835938 19.78125 -28.171875 C 19.925781 -27.742188 20.070312 -27.382812 20.21875 -27.09375 C 20.40625 -26.664062 20.703125 -26.472656 21.109375 -26.515625 C 21.515625 -26.566406 21.742188 -26.804688 21.796875 -27.234375 C 22.035156 -27.910156 22.15625 -28.4375 22.15625 -28.8125 C 22.15625 -29.195312 22.15625 -29.988281 22.15625 -31.1875 C 22.195312 -36.539062 22.21875 -40.503906 22.21875 -43.078125 C 22.21875 -45.660156 22.21875 -46.878906 22.21875 -46.734375 C 22.21875 -47.929688 22.273438 -48.78125 22.390625 -49.28125 C 22.515625 -49.78125 22.835938 -50.085938 23.359375 -50.203125 C 23.890625 -50.328125 24.726562 -50.390625 25.875 -50.390625 C 26.5 -50.390625 27.097656 -50.390625 27.671875 -50.390625 C 28.242188 -50.390625 28.789062 -50.34375 29.3125 -50.25 C 30.082031 -50.207031 30.503906 -49.8125 30.578125 -49.0625 C 30.648438 -48.320312 30.6875 -47.546875 30.6875 -46.734375 L 30.6875 -27.890625 Z M 33.484375 -26.234375 "/></g></g></g></g></g></g><g clip-path="url(#063ca50c8c)"><path fill="#ffffff" d="M 184.652344 58.855469 C 186.40625 58.855469 188.097656 58.597656 189.707031 58.152344 L 189.707031 64.667969 C 188.074219 65 186.382812 65.175781 184.652344 65.175781 C 182.921875 65.175781 181.230469 65 179.597656 64.667969 L 179.597656 58.152344 C 181.207031 58.597656 182.898438 58.855469 184.652344 58.855469 Z M 179.597656 48.644531 L 179.597656 51.476562 C 181.144531 52.152344 182.855469 52.535156 184.652344 52.535156 C 186.453125 52.535156 188.160156 52.152344 189.707031 51.476562 L 189.707031 48.644531 C 188.21875 49.507812 186.496094 50.007812 184.652344 50.007812 C 182.808594 50.007812 181.085938 49.507812 179.597656 48.644531 Z M 173.664062 38.226562 C 172.792969 37.152344 171.164062 36.953125 170.195312 37.933594 C 169.65625 38.472656 169.4375 39.214844 169.507812 39.929688 L 169.484375 39.894531 L 169.484375 33.710938 C 169.484375 32.453125 168.625 31.285156 167.382812 31.082031 C 165.796875 30.824219 164.429688 32.039062 164.429688 33.574219 L 164.429688 42.289062 C 164.429688 43.203125 164.675781 44.101562 165.148438 44.886719 L 168.21875 50.007812 L 169.484375 65.175781 L 177.070312 65.175781 L 177.070312 44.214844 C 177.070312 43.054688 176.667969 41.933594 175.9375 41.03125 Z M 184.652344 14.617188 C 170.691406 14.617188 159.371094 25.933594 159.371094 39.894531 C 159.371094 46.613281 162.011719 52.703125 166.285156 57.230469 L 165.75 50.804688 L 162.980469 46.191406 C 162.273438 45.007812 161.902344 43.660156 161.902344 42.289062 L 161.902344 33.574219 C 161.902344 32.089844 162.550781 30.6875 163.683594 29.722656 C 164.8125 28.761719 166.308594 28.351562 167.785156 28.585938 C 168.261719 28.664062 168.703125 28.828125 169.125 29.035156 C 172.554688 24.144531 178.222656 20.9375 184.652344 20.9375 C 191.082031 20.9375 196.753906 24.144531 200.179688 29.035156 C 200.601562 28.828125 201.042969 28.664062 201.519531 28.585938 C 202.996094 28.351562 204.492188 28.761719 205.625 29.722656 C 206.753906 30.6875 207.40625 32.089844 207.40625 33.574219 L 207.40625 42.289062 C 207.40625 43.660156 207.03125 45.007812 206.324219 46.1875 L 203.554688 50.804688 L 203.019531 57.230469 C 207.292969 52.703125 209.933594 46.613281 209.933594 39.894531 C 209.933594 25.933594 198.613281 14.617188 184.652344 14.617188 Z M 196.28125 34.941406 C 194.355469 30.421875 189.875 27.253906 184.652344 27.253906 C 179.429688 27.253906 174.949219 30.421875 173.023438 34.941406 C 173.859375 35.167969 174.609375 35.625 175.234375 36.238281 C 176.699219 32.464844 180.359375 29.785156 184.652344 29.785156 C 188.945312 29.785156 192.605469 32.464844 194.070312 36.238281 C 194.695312 35.625 195.445312 35.167969 196.28125 34.941406 Z M 204.875 42.289062 L 204.875 33.574219 C 204.875 32.039062 203.507812 30.824219 201.925781 31.082031 C 200.679688 31.285156 199.820312 32.453125 199.820312 33.710938 L 199.820312 39.894531 L 199.796875 39.929688 C 199.867188 39.214844 199.648438 38.472656 199.113281 37.933594 C 198.140625 36.953125 196.511719 37.152344 195.640625 38.226562 L 193.367188 41.03125 C 192.636719 41.933594 192.238281 43.054688 192.238281 44.214844 L 192.238281 65.175781 L 199.820312 65.175781 L 201.085938 50.007812 L 204.15625 44.886719 C 204.628906 44.101562 204.875 43.203125 204.875 42.289062 Z M 204.875 42.289062 " fill-opacity="1" fill-rule="nonzero"/></g><g clip-path="url(#942b7b7dcb)"><g transform="matrix(1, 0, 0, 1, 212, 0)"><g clip-path="url(#eac9b7eab3)"><g fill="#ffffff" fill-opacity="1"><g transform="translate(2.142386, 64.947321)"><g><path d="M 29.390625 -15.765625 C 29.335938 -15.285156 29.3125 -14.710938 29.3125 -14.046875 C 29.3125 -13.378906 29.3125 -12.640625 29.3125 -11.828125 C 29.363281 -9.003906 28.4375 -6.445312 26.53125 -4.15625 C 25.476562 -2.914062 24.425781 -1.992188 23.375 -1.390625 C 22.320312 -0.796875 21.050781 -0.390625 19.5625 -0.171875 C 18.082031 0.0351562 16.21875 0.128906 13.96875 0.109375 C 11.726562 0.0859375 8.910156 0.0507812 5.515625 0 C 4.753906 0 4.179688 -0.191406 3.796875 -0.578125 C 3.554688 -0.859375 3.410156 -1.296875 3.359375 -1.890625 C 3.316406 -2.492188 3.296875 -3.394531 3.296875 -4.59375 L 3.296875 -22.515625 L 0.4375 -24.15625 C 0.0507812 -24.394531 -0.140625 -24.726562 -0.140625 -25.15625 C -0.140625 -25.632812 0.0507812 -25.992188 0.4375 -26.234375 L 3.296875 -27.890625 L 3.296875 -46.8125 C 3.296875 -48.582031 3.441406 -49.609375 3.734375 -49.890625 C 4.109375 -50.273438 4.8125 -50.46875 5.84375 -50.46875 C 6.875 -50.46875 8.75 -50.441406 11.46875 -50.390625 C 12.425781 -50.390625 13.273438 -50.390625 14.015625 -50.390625 C 14.753906 -50.390625 15.410156 -50.414062 15.984375 -50.46875 C 19.285156 -50.519531 22.082031 -49.585938 24.375 -47.671875 C 25.519531 -46.671875 26.460938 -45.367188 27.203125 -43.765625 C 27.941406 -42.160156 28.421875 -40.4375 28.640625 -38.59375 C 28.859375 -36.757812 28.773438 -34.921875 28.390625 -33.078125 C 28.003906 -31.242188 27.265625 -29.609375 26.171875 -28.171875 C 25.691406 -27.503906 25.453125 -26.953125 25.453125 -26.515625 C 25.453125 -26.085938 25.738281 -25.539062 26.3125 -24.875 C 28.457031 -22.488281 29.484375 -19.453125 29.390625 -15.765625 Z M 12.46875 -39.640625 C 12.332031 -38.785156 12.238281 -37.769531 12.1875 -36.59375 C 12.132812 -35.425781 12.21875 -34.328125 12.4375 -33.296875 C 12.65625 -32.265625 13.085938 -31.488281 13.734375 -30.96875 C 14.378906 -30.445312 15.320312 -30.398438 16.5625 -30.828125 C 17.46875 -31.109375 18.132812 -31.609375 18.5625 -32.328125 C 19.28125 -33.617188 19.640625 -35.078125 19.640625 -36.703125 L 19.21875 -38.859375 C 18.59375 -40.722656 17.347656 -41.722656 15.484375 -41.859375 C 14.578125 -41.960938 13.882812 -41.84375 13.40625 -41.5 C 12.925781 -41.164062 12.613281 -40.546875 12.46875 -39.640625 Z M 19.140625 -10.828125 C 20.523438 -13.453125 20.691406 -16.175781 19.640625 -19 C 19.253906 -20.09375 18.476562 -20.972656 17.3125 -21.640625 C 16.144531 -22.316406 15.054688 -22.414062 14.046875 -21.9375 C 13.429688 -21.601562 13.003906 -21.21875 12.765625 -20.78125 C 12.523438 -20.351562 12.40625 -19.707031 12.40625 -18.84375 C 12.40625 -17.988281 12.40625 -16.75 12.40625 -15.125 C 12.40625 -13.351562 12.40625 -12.015625 12.40625 -11.109375 C 12.40625 -10.203125 12.554688 -9.566406 12.859375 -9.203125 C 13.171875 -8.847656 13.734375 -8.648438 14.546875 -8.609375 C 16.742188 -8.554688 18.273438 -9.296875 19.140625 -10.828125 Z M 19.140625 -10.828125 "/></g></g></g><g fill="#ffffff" fill-opacity="1"><g transform="translate(34.185605, 64.947321)"><g><path d="M 30.6875 -26.171875 C 31.0625 -25.929688 31.25 -25.59375 31.25 -25.15625 C 31.25 -24.726562 31.0625 -24.394531 30.6875 -24.15625 L 27.8125 -22.515625 L 27.8125 -12.265625 C 27.8125 -9.722656 27.191406 -7.472656 25.953125 -5.515625 C 24.804688 -3.847656 23.707031 -2.609375 22.65625 -1.796875 C 21.601562 -0.984375 20.382812 -0.457031 19 -0.21875 C 17.613281 0.0195312 15.867188 0.113281 13.765625 0.0625 C 11.660156 0.0195312 8.984375 0 5.734375 0 L 5.453125 0 C 4.773438 0 4.296875 -0.144531 4.015625 -0.4375 C 3.722656 -0.71875 3.550781 -1.132812 3.5 -1.6875 C 3.457031 -2.238281 3.4375 -3.15625 3.4375 -4.4375 L 3.4375 -22.515625 L 0.578125 -24.15625 C 0.191406 -24.394531 0 -24.726562 0 -25.15625 C 0 -25.59375 0.191406 -25.929688 0.578125 -26.171875 L 3.4375 -27.8125 L 3.4375 -46.3125 C 3.4375 -46.832031 3.445312 -47.304688 3.46875 -47.734375 C 3.5 -48.171875 3.515625 -48.53125 3.515625 -48.8125 C 3.609375 -49.675781 3.988281 -50.15625 4.65625 -50.25 C 5.320312 -50.34375 5.992188 -50.390625 6.671875 -50.390625 C 10.015625 -50.441406 12.535156 -50.46875 14.234375 -50.46875 C 15.929688 -50.46875 16.800781 -50.46875 16.84375 -50.46875 C 19.476562 -50.46875 21.675781 -49.5625 23.4375 -47.75 C 25.207031 -45.976562 26.378906 -44.410156 26.953125 -43.046875 C 27.523438 -41.679688 27.8125 -40.1875 27.8125 -38.5625 L 27.8125 -27.8125 Z M 19.359375 -36.203125 C 19.359375 -36.679688 19.359375 -37.070312 19.359375 -37.375 C 19.359375 -37.6875 19.332031 -37.941406 19.28125 -38.140625 C 19.09375 -40.484375 17.828125 -41.722656 15.484375 -41.859375 C 14.148438 -41.960938 13.21875 -41.8125 12.6875 -41.40625 C 12.164062 -41 11.925781 -40.125 11.96875 -38.78125 L 11.96875 -12.46875 C 11.96875 -11.613281 12.015625 -10.847656 12.109375 -10.171875 C 12.210938 -9.503906 12.597656 -9.03125 13.265625 -8.75 C 14.171875 -8.414062 15.085938 -8.363281 16.015625 -8.59375 C 16.953125 -8.832031 17.742188 -9.300781 18.390625 -10 C 19.035156 -10.695312 19.359375 -11.5 19.359375 -12.40625 Z M 19.359375 -36.203125 "/></g></g></g></g></g></g></g></g></g></svg>